<svg width="25" height="24" viewBox="0 0 25 24" fill="none" xmlns="http://www.w3.org/2000/svg">
<path fill-rule="evenodd" clip-rule="evenodd" d="M4.36767 7.744C4.68919 7.41941 5.21042 7.41718 5.53195 7.74623L12.7086 15.0723C13.0301 15.4002 13.029 15.93 12.7064 16.2557C12.5461 16.4175 12.3355 16.5 12.1259 16.5C11.9141 16.5 11.7034 16.4175 11.5432 16.2535L4.36657 8.92745C4.04505 8.59952 4.04615 8.0697 4.36767 7.744ZM18.7189 7.74634C19.0404 7.41729 19.5617 7.41952 19.8832 7.74411C20.2058 8.06981 20.2069 8.59963 19.8865 8.92756L15.1207 13.793C14.9605 13.957 14.7487 14.0395 14.538 14.0395C14.3284 14.0395 14.1178 13.957 13.9575 13.7952C13.6349 13.4695 13.6338 12.9397 13.9543 12.6118L18.7189 7.74634Z" fill="white"/>
</svg>
