<svg width="16" height="16" viewBox="0 0 16 16" fill="none" xmlns="http://www.w3.org/2000/svg">
<path d="M14.3531 10.62C14.2465 10.44 13.9465 10.16 13.1998 10.2933C12.7865 10.3667 12.3665 10.4 11.9465 10.38C10.3931 10.3133 8.98647 9.6 8.00647 8.5C7.13981 7.53333 6.60647 6.27333 6.5998 4.91333C6.5998 4.15333 6.74647 3.42 7.04647 2.72666C7.3398 2.05333 7.13314 1.7 6.98647 1.55333C6.83314 1.4 6.47314 1.18666 5.76647 1.48C3.03981 2.62666 1.35314 5.36 1.55314 8.28666C1.75314 11.04 3.68647 13.3933 6.24647 14.28C6.85981 14.4933 7.50647 14.62 8.17314 14.6467C8.27981 14.6533 8.38647 14.66 8.49314 14.66C10.7265 14.66 12.8198 13.6067 14.1398 11.8133C14.5865 11.1933 14.4665 10.8 14.3531 10.62Z" fill="#292D32"/>
</svg>
